<svg xmlns="http://www.w3.org/2000/svg" width="20" height="20" viewBox="0 0 20 20" fill="none">
  <path fill-rule="evenodd" clip-rule="evenodd" d="M11.6668 6.07143C11.6668 8.04386 10.0678 9.64286 8.09535 9.64286C6.12293 9.64286 4.52393 8.04386 4.52393 6.07143C4.52393 4.09899 6.12293 2.5 8.09535 2.5C10.0678 2.5 11.6668 4.09899 11.6668 6.07143ZM10.2382 6.07143C10.2382 7.25493 9.27885 8.21429 8.09535 8.21429C6.91185 8.21429 5.9525 7.25493 5.9525 6.07143C5.9525 4.88796 6.91185 3.92857 8.09535 3.92857C9.27885 3.92857 10.2382 4.88796 10.2382 6.07143Z" fill="#385B8B"/>
  <path d="M8.09508 11.0714C8.888 11.0714 9.60115 11.1077 10.2379 11.1675V12.6028C9.61343 12.5396 8.90072 12.5 8.09508 12.5C5.58392 12.5 3.97503 12.8851 3.12858 13.1694C3.36068 14.8098 4.77043 16.0714 6.47486 16.0714H9.71529C10.0471 16.0714 10.3678 16.0236 10.6708 15.9345C11.0365 16.4178 11.6024 16.7413 12.2451 16.7815C11.5102 17.237 10.6435 17.5 9.71529 17.5H6.47486C3.81928 17.5 1.6665 15.3472 1.6665 12.6916C1.6665 12.4114 1.8134 12.154 2.0709 12.0434C2.84646 11.7103 4.76791 11.0714 8.09508 11.0714Z" fill="#385B8B"/>
  <path d="M18.127 10.2019C18.1982 9.9593 18.1382 9.68637 17.9468 9.49501L17.1712 8.71944C16.9799 8.52808 16.7069 8.46801 16.4644 8.53923C16.3533 8.5718 16.2487 8.63187 16.1611 8.71944L15.5947 9.2858L17.3804 11.0715L17.9468 10.5052C18.0344 10.4176 18.0944 10.3129 18.127 10.2019Z" fill="#385B8B"/>
  <path d="M11.667 13.2143V15H13.4527L16.667 11.7857L14.8813 10L11.667 13.2143Z" fill="#385B8B"/>
</svg>