<svg xmlns="http://www.w3.org/2000/svg" width="24" height="24" viewBox="0 0 24 24" fill="none">
  <path d="M16.4103 7.1601L10.6852 9.06847C10.3091 9.19473 9.96738 9.40642 9.68687 9.68693C9.40636 9.96744 9.19467 10.3091 9.06841 10.6852L7.16004 16.4103C7.14007 16.4702 7.13717 16.5344 7.15166 16.5958C7.16615 16.6573 7.19746 16.7134 7.24208 16.7581C7.2867 16.8027 7.34287 16.834 7.40429 16.8485C7.4657 16.863 7.52994 16.8601 7.5898 16.8401L13.32 14.9317C13.6961 14.8055 14.0378 14.5938 14.3183 14.3133C14.5988 14.0328 14.8105 13.6911 14.9368 13.315L16.84 7.58987C16.862 7.53023 16.8659 7.46547 16.8513 7.40362C16.8368 7.34177 16.8044 7.28556 16.7582 7.24196C16.7148 7.1954 16.6586 7.16276 16.5967 7.14819C16.5347 7.13362 16.4698 7.13776 16.4103 7.1601ZM12 13.0234C11.7977 13.0234 11.5998 12.9633 11.4315 12.8509C11.2633 12.7385 11.1321 12.5787 11.0547 12.3917C10.9772 12.2047 10.957 11.999 10.9964 11.8005C11.0359 11.602 11.1334 11.4197 11.2765 11.2765C11.4196 11.1334 11.6019 11.036 11.8004 10.9965C11.9989 10.957 12.2046 10.9773 12.3916 11.0547C12.5786 11.1322 12.7384 11.2633 12.8508 11.4316C12.9633 11.5999 13.0233 11.7977 13.0233 12.0001C13.0233 12.2715 12.9155 12.5317 12.7236 12.7236C12.5317 12.9155 12.2714 13.0234 12 13.0234Z" fill="#385B8B"/>
  <path d="M12 1C9.82441 1 7.69767 1.64514 5.88873 2.85383C4.07979 4.06253 2.66989 5.78049 1.83733 7.79048C1.00477 9.80047 0.786929 12.0122 1.21137 14.146C1.6358 16.2798 2.68345 18.2398 4.22183 19.7782C5.76021 21.3165 7.72022 22.3642 9.85401 22.7886C11.9878 23.2131 14.1995 22.9952 16.2095 22.1627C18.2195 21.3301 19.9375 19.9202 21.1462 18.1113C22.3549 16.3023 23 14.1756 23 12C22.9968 9.08361 21.8368 6.28761 19.7746 4.22541C17.7124 2.16322 14.9164 1.00325 12 1ZM18.2971 8.07581L16.3887 13.806C16.1866 14.408 15.8477 14.9549 15.3987 15.4038C14.9497 15.8528 14.4029 16.1917 13.8009 16.3939L8.0707 18.3022C7.87801 18.3665 7.67624 18.3993 7.47312 18.3994C7.17626 18.3984 6.88386 18.327 6.61993 18.1911C6.356 18.0552 6.12806 17.8587 5.9548 17.6176C5.78155 17.3766 5.66791 17.0979 5.62324 16.8044C5.57856 16.5109 5.6041 16.211 5.69777 15.9293L7.60614 10.1991C7.80882 9.5966 8.14846 9.04935 8.59838 8.60033C9.04829 8.1513 9.59621 7.81274 10.1991 7.61125L15.9293 5.70288C16.2598 5.59258 16.6145 5.57652 16.9537 5.65651C17.2928 5.73651 17.603 5.90939 17.8493 6.15578C18.0957 6.40216 18.2686 6.71231 18.3486 7.05144C18.4286 7.39058 18.4125 7.74529 18.3022 8.07581H18.2971Z" fill="#385B8B"/>
</svg>