<svg xmlns="http://www.w3.org/2000/svg" width="201" height="166" viewBox="0 0 201 166" fill="none">
  <path d="M6.948 76.3047V78.0063" stroke="#D2D8DF" strokeWidth="2.921" strokeLinecap="round"/>
  <path d="M3.12573 77.2269L4.51621 78.6583" stroke="#D2D8DF" strokeWidth="2.921" strokeLinecap="round"/>
  <path d="M1.5 81.0372H3.46611" stroke="#D2D8DF" strokeWidth="2.921" strokeLinecap="round"/>
  <path d="M2.96753 84.9155L4.35801 83.4841" stroke="#D2D8DF" strokeWidth="2.921" strokeLinecap="round"/>
  <path d="M6.948 85.3801V83.6785" stroke="#D2D8DF" strokeWidth="2.921" strokeLinecap="round"/>
  <path d="M9.78457 84.2454L8.65015 83.111" stroke="#D2D8DF" strokeWidth="2.921" strokeLinecap="round"/>
  <path d="M12.0525 81.4095H10.3508" stroke="#D2D8DF" strokeWidth="2.921" strokeLinecap="round"/>
  <path d="M10.9188 77.439L9.78442 78.5734" stroke="#D2D8DF" strokeWidth="2.921" strokeLinecap="round"/>
  <path d="M98.2695 2V3.13442" stroke="#D2D8DF" strokeWidth="2.921" strokeLinecap="round"/>
  <path d="M94.8655 5.40308H95.9999" stroke="#D2D8DF" strokeWidth="2.921" strokeLinecap="round"/>
  <path d="M98.2695 8.80642V7.672" stroke="#D2D8DF" strokeWidth="2.921" strokeLinecap="round"/>
  <path d="M101.105 5.40308H99.9702" stroke="#D2D8DF" strokeWidth="2.921" strokeLinecap="round"/>
  <path d="M32.4727 49.6456V51.3473" stroke="#D2D8DF" strokeWidth="2.921" strokeLinecap="round"/>
  <path d="M27.3677 54.7506H29.0693" stroke="#D2D8DF" strokeWidth="2.921" strokeLinecap="round"/>
  <path d="M32.4727 59.2882V57.5865" stroke="#D2D8DF" strokeWidth="2.921" strokeLinecap="round"/>
  <path d="M37.0105 54.7506H35.3088" stroke="#D2D8DF" strokeWidth="2.921" strokeLinecap="round"/>
  <path d="M154.566 111.493C155.921 111.493 157.021 112.593 157.021 113.949C157.021 115.305 155.921 116.404 154.566 116.404C153.21 116.404 152.111 115.305 152.111 113.949" stroke="#D2D8DF" strokeWidth="2.921" strokeLinecap="round"/>
  <path fill-rule="evenodd" clip-rule="evenodd" d="M165.801 89.2161C167.259 88.7614 169.493 86.9788 170.01 85.0608C170.479 86.7562 172.445 88.7614 174.219 88.9131C172.222 89.6202 170.313 91.7208 170.01 93.3709C169.804 91.689 167.163 89.4613 165.801 89.2161Z" fill="#EBECEE"/>
  <path fill-rule="evenodd" clip-rule="evenodd" d="M16.1775 110.737C16.9065 110.51 18.0232 109.619 18.2818 108.66C18.5163 109.507 19.4991 110.51 20.3861 110.586C19.3879 110.939 18.4335 111.99 18.2818 112.815C18.1788 111.974 16.8584 110.86 16.1775 110.737Z" fill="#EBECEE"/>
  <path fill-rule="evenodd" clip-rule="evenodd" d="M29.7069 31.8337C29.7069 32.8857 28.8546 33.7377 27.8034 33.7377C26.7517 33.7377 25.8999 32.8857 25.8999 31.8337C25.8999 30.7822 26.7517 29.9297 27.8034 29.9297C28.8546 29.9297 29.7069 30.7822 29.7069 31.8337Z" fill="#D1D8DF"/>
  <path fill-rule="evenodd" clip-rule="evenodd" d="M156.815 36.946C156.815 38.7036 155.39 40.1284 153.633 40.1284C151.876 40.1284 150.451 38.7036 150.451 36.946C150.451 35.1884 151.876 33.7637 153.633 33.7637C155.39 33.7637 156.815 35.1884 156.815 36.946Z" fill="#EBECEE"/>
  <path fill-rule="evenodd" clip-rule="evenodd" d="M200.886 28.3238C200.886 29.7183 199.756 30.8482 198.362 30.8482C196.968 30.8482 195.839 29.7183 195.839 28.3238C195.839 26.9294 196.968 25.7994 198.362 25.7994C199.756 25.7994 200.886 26.9294 200.886 28.3238Z" fill="#EBECEE"/>
  <path fill-rule="evenodd" clip-rule="evenodd" d="M65.2816 146.223C65.2816 147.102 64.5694 147.815 63.6906 147.815C62.8123 147.815 62.1001 147.102 62.1001 146.223C62.1001 145.344 62.8123 144.632 63.6906 144.632C64.5694 144.632 65.2816 145.344 65.2816 146.223Z" stroke="#D2D8DF" strokeWidth="2.921" strokeLinecap="round"/>
  <path fill-rule="evenodd" clip-rule="evenodd" d="M64.3351 19.6015C64.3351 20.6535 63.4828 21.5055 62.4316 21.5055C61.3804 21.5055 60.5281 20.6535 60.5281 19.6015C60.5281 18.5501 61.3804 17.6975 62.4316 17.6975C63.4828 17.6975 64.3351 18.5501 64.3351 19.6015Z" stroke="#D2D8DF" strokeWidth="2.921" strokeLinecap="round"/>
  <path fill-rule="evenodd" clip-rule="evenodd" d="M112.89 163.845C111.674 164.308 110.313 163.697 109.85 162.481C109.387 161.264 109.998 159.902 111.215 159.44C112.431 158.977 113.792 159.588 114.255 160.804C114.718 162.021 114.107 163.383 112.89 163.845Z" stroke="#D2D8DF" strokeWidth="2.921" strokeLinecap="round"/>
  <path fill-rule="evenodd" clip-rule="evenodd" d="M112.167 118.845H65.6527C62.3788 118.845 59.699 116.157 59.699 112.872V46.5414C59.699 43.2565 62.3788 40.5701 65.6527 40.5701H112.167C115.442 40.5701 118.122 43.2565 118.122 46.5414V112.872C118.122 116.157 115.442 118.845 112.167 118.845Z" fill="#E0E2EE"/>
  <path fill-rule="evenodd" clip-rule="evenodd" d="M108.196 121.681H61.6822C58.4084 121.681 55.7285 118.993 55.7285 115.709V49.3774C55.7285 46.0925 58.4084 43.4061 61.6822 43.4061H108.196C111.471 43.4061 114.151 46.0925 114.151 49.3774V115.709C114.151 118.993 111.471 121.681 108.196 121.681Z" fill="#E8EBF2"/>
  <path fill-rule="evenodd" clip-rule="evenodd" d="M104.334 123.92H57.7238C54.4432 123.92 51.7578 121.243 51.7578 117.972V51.9157C51.7578 48.6444 54.4432 45.9691 57.7238 45.9691H104.334C107.616 45.9691 110.301 48.6444 110.301 51.9157V117.972C110.301 121.243 107.616 123.92 104.334 123.92Z" fill="#D8DBEA"/>
  <path fill-rule="evenodd" clip-rule="evenodd" d="M104.334 123.92H57.7238C54.4432 123.92 51.7578 121.243 51.7578 117.972V51.9157C51.7578 48.6444 54.4432 45.9691 57.7238 45.9691H104.334C107.616 45.9691 110.301 48.6444 110.301 51.9157V117.972C110.301 121.243 107.616 123.92 104.334 123.92Z" fill="#F1F2F7"/>
  <path fill-rule="evenodd" clip-rule="evenodd" d="M97.6163 66.0945H63.1891C62.2059 66.0945 61.4011 65.3289 61.4011 64.3936C61.4011 63.4569 62.2059 62.6913 63.1891 62.6913H97.6163C98.5994 62.6913 99.4042 63.4569 99.4042 64.3936C99.4042 65.3289 98.5994 66.0945 97.6163 66.0945Z" fill="#E0E2EE"/>
  <path fill-rule="evenodd" clip-rule="evenodd" d="M97.6163 76.3044H63.1891C62.2059 76.3044 61.4011 75.5387 61.4011 74.6034C61.4011 73.6668 62.2059 72.9011 63.1891 72.9011H97.6163C98.5994 72.9011 99.4042 73.6668 99.4042 74.6034C99.4042 75.5387 98.5994 76.3044 97.6163 76.3044Z" fill="#E0E2EE"/>
  <path fill-rule="evenodd" clip-rule="evenodd" d="M97.6163 86.5141H63.1891C62.2059 86.5141 61.4011 85.7485 61.4011 84.8131C61.4011 83.8778 62.2059 83.1108 63.1891 83.1108H97.6163C98.5994 83.1108 99.4042 83.8778 99.4042 84.8131C99.4042 85.7485 98.5994 86.5141 97.6163 86.5141Z" fill="#E0E2EE"/>
  <path fill-rule="evenodd" clip-rule="evenodd" d="M97.6163 96.7239H63.1891C62.2059 96.7239 61.4011 95.9583 61.4011 95.0229C61.4011 94.0863 62.2059 93.3207 63.1891 93.3207H97.6163C98.5994 93.3207 99.4042 94.0863 99.4042 95.0229C99.4042 95.9583 98.5994 96.7239 97.6163 96.7239Z" fill="#E0E2EE"/>
  <path fill-rule="evenodd" clip-rule="evenodd" d="M81.1595 106.934H63.1967C62.2093 106.934 61.4011 106.168 61.4011 105.233C61.4011 104.296 62.2093 103.53 63.1967 103.53H81.1595C82.1469 103.53 82.9551 104.296 82.9551 105.233C82.9551 106.168 82.1469 106.934 81.1595 106.934Z" fill="#E0E2EE"/>
  <path fill-rule="evenodd" clip-rule="evenodd" d="M117.415 93.7388C110.531 100.622 99.8734 101.398 92.1363 96.0841C91.1475 95.3928 90.2063 94.6163 89.3286 93.7388C88.8768 93.2885 88.451 92.8238 88.0497 92.3345C87.2471 91.3574 86.5441 90.3154 85.9682 89.2387C84.9534 87.4202 84.2634 85.4906 83.8866 83.496C82.6712 77.2409 84.4886 70.5081 89.3286 65.6703C94.1803 60.8181 100.914 59.0126 107.17 60.2163C109.164 60.6045 111.095 61.2944 112.914 62.2974C113.992 62.8863 115.02 63.5892 115.999 64.3916C116.487 64.7914 116.952 65.2186 117.402 65.6703C118.281 66.5478 119.069 67.4874 119.748 68.4775C125.064 76.2119 124.286 86.8689 117.415 93.7388Z" fill="white" fill-opacity="0.1"/>
  <path fill-rule="evenodd" clip-rule="evenodd" d="M115.49 92.3831C108.328 99.5463 96.7211 99.545 89.5578 92.3831C82.4039 85.2291 82.4039 73.6213 89.5672 66.4593C96.7211 59.3054 108.328 59.3054 115.482 66.4593C122.643 73.6213 122.643 85.2291 115.49 92.3831ZM119.165 62.7795C109.972 53.5865 95.0748 53.5865 85.8819 62.7795C76.6902 71.9711 76.6822 86.8774 85.8739 96.0704C94.2406 104.434 107.354 105.189 116.578 98.3213C117.479 97.6496 118.346 96.8967 119.174 96.0704C120 95.2428 120.753 94.3752 121.424 93.4743C128.291 84.2493 127.53 71.1449 119.165 62.7795Z" fill="#E0E2EE"/>
  <path fill-rule="evenodd" clip-rule="evenodd" d="M155.343 130.724L154.957 131.11C152.404 133.664 148.222 133.664 145.668 131.11L122.092 107.534L131.767 97.8585L155.343 121.435C157.898 123.989 157.898 128.169 155.343 130.724Z" fill="#D1D4E1"/>
  <path fill-rule="evenodd" clip-rule="evenodd" d="M121.931 92.7537L128.898 99.7205L123.952 104.665L116.987 97.6983C117.906 97.0129 118.79 96.2445 119.636 95.4014C120.479 94.5583 121.247 93.673 121.931 92.7537Z" fill="#E0E2EE"/>
  <path fill-rule="evenodd" clip-rule="evenodd" d="M154.99 121.144L145.376 130.757L143.646 129.025L153.258 119.412L154.99 121.144Z" fill="#A7ABC5"/>
  <path fill-rule="evenodd" clip-rule="evenodd" d="M132.302 98.1911L122.425 108.068L120.958 106.601L130.834 96.7239L132.302 98.1911Z" fill="#A7ABC5"/>
  <path fill-rule="evenodd" clip-rule="evenodd" d="M110.747 63.995L86.5253 88.2157C85.6131 86.5808 84.9929 84.8461 84.6555 83.0529L105.584 62.124C107.376 62.4744 109.112 63.0933 110.747 63.995Z" fill="white" fill-opacity="0.5"/>
  <path fill-rule="evenodd" clip-rule="evenodd" d="M118.688 69.7522L92.5017 94.4551C91.5639 93.8378 90.6713 93.1429 89.8389 92.3577C89.4104 91.9535 89.0052 91.5389 88.626 91.1011L115.131 66.0946C115.596 66.4536 116.036 66.8359 116.463 67.2402C117.296 68.0254 118.045 68.8662 118.688 69.7522Z" fill="white" fill-opacity="0.5"/>
</svg>