<svg xmlns="http://www.w3.org/2000/svg" width="42" height="42" viewBox="0 0 42 42" fill="none">
  <rect x="0.5" y="0.5" width="41" height="41" rx="7.5" stroke="#F4F4F4"/>
  <path d="M24.3534 29.5128C24.2469 31.4566 22.637 33 20.6667 33C18.6963 33 17.0864 31.4566 16.98 29.5128H11.2318C10.5508 29.5128 10 28.9634 10 28.2833V27.0513C10 25.6931 11.103 24.5897 12.4624 24.5897C12.4608 24.5897 12.4615 19.6664 12.4615 19.6664C12.4615 16.1986 14.6301 13.1582 17.7949 11.978V11.8698C17.7949 10.2854 19.0824 9 20.6667 9C22.2526 9 23.5385 10.2846 23.5385 11.8698V11.978C26.7032 13.1585 28.8718 16.1993 28.8718 19.6664V24.589C30.2283 24.5897 31.3333 25.6926 31.3333 27.0513V28.2833C31.3333 28.9607 30.7807 29.5128 30.1015 29.5128H24.3534ZM22.7078 29.5128H18.6255C18.7284 30.5494 19.603 31.359 20.6667 31.359C21.7303 31.359 22.6049 30.5494 22.7078 29.5128ZM29.6923 27.8718V27.0513C29.6923 26.5997 29.3227 26.2308 28.8709 26.2308C27.9642 26.2308 27.2308 25.4977 27.2308 24.589V19.6664C27.2308 16.7227 25.2762 14.1625 22.4905 13.3589L21.8974 13.1879V11.8698C21.8974 11.1913 21.3466 10.641 20.6667 10.641C19.9881 10.641 19.4359 11.1923 19.4359 11.8698V13.1878L18.8428 13.3589C16.0569 14.1624 14.1026 16.722 14.1026 19.6664V24.589C14.1026 25.4951 13.3673 26.2308 12.4624 26.2308C12.0094 26.2308 11.641 26.5993 11.641 27.0513V27.8718H29.6923Z" fill="#65758C"/>
</svg>