<svg xmlns="http://www.w3.org/2000/svg" width="24" height="24" viewBox="0 0 24 24" fill="none">
  <g clip-path="url(#clip0_1183_8783)">
    <path d="M22.126 12.0276V8.95009C22.126 7.95009 21.2955 7.1376 20.2733 7.1376H19.7239L19.1719 4.62011C19.0901 4.24761 18.8653 3.93012 18.5382 3.72262C18.2111 3.51512 17.8226 3.44512 17.4419 3.52512L16.6216 3.69762L15.4512 1.71263C15.0499 1.03263 14.1581 0.797635 13.4604 1.19013L2.93449 7.1351H2.85271C1.83053 7.1351 1 7.94759 1 8.94759V21.1875C1 22.1875 1.83053 23 2.85271 23H20.2733C21.2955 23 22.126 22.1875 22.126 21.1875V18.11C22.6371 17.915 23 17.4275 23 16.86V13.2776C23 12.7101 22.6371 12.2226 22.126 12.0276ZM22.103 16.86C22.103 17.115 21.8909 17.325 21.6277 17.325H17.4879C16.2152 17.325 15.1828 16.3125 15.1828 15.07C15.1828 13.8276 16.2178 12.8151 17.4879 12.8151H21.6277C21.8884 12.8151 22.103 13.0226 22.103 13.2801V16.8625V16.86ZM17.6284 4.38261C17.7741 4.35261 17.9248 4.37761 18.0501 4.45761C18.1753 4.53761 18.2622 4.66011 18.2928 4.80261L18.8039 7.1376H5.1373C5.21652 7.0376 5.32896 6.9651 5.46184 6.9376L17.631 4.38261H17.6284ZM13.9077 1.95013C14.176 1.80013 14.5184 1.89013 14.6717 2.15013L15.699 3.89012L7.38355 5.63511L13.9077 1.95013ZM20.2708 22.1225H2.85271C2.32629 22.1225 1.89697 21.7025 1.89697 21.1875V8.94759C1.89697 8.43259 2.32629 8.01259 2.85271 8.01259H19.3585H20.2682C20.7946 8.01259 21.224 8.43259 21.224 8.94759V11.9351H17.4827C15.7169 11.9351 14.2808 13.3401 14.2808 15.0675C14.2808 16.795 15.7169 18.2 17.4827 18.2H21.224V21.1875C21.224 21.7025 20.7946 22.1225 20.2682 22.1225H20.2708Z" fill="#65758C" stroke="#65758C" strokeWidth="0.6"/>
    <path d="M17.3625 14.2427C16.8974 14.2427 16.5166 14.6127 16.5166 15.0702C16.5166 15.5277 16.8948 15.8977 17.3625 15.8977C17.8301 15.8977 18.2083 15.5277 18.2083 15.0702C18.2083 14.6127 17.8301 14.2427 17.3625 14.2427Z" fill="#65758C" stroke="#65758C" strokeWidth="0.6"/>
  </g>
  <defs>
    <clipPath id="clip0_1183_8783">
      <rect width="24" height="24" fill="white"/>
    </clipPath>
  </defs>
</svg>